# xmcd
#
# Track frame offsets: 
#        150
#        16057
#        34566
#        55431
#        84594
#        104051
#        120151
#        137608
#        156462
#        170965
#
# Disc length: 2596 seconds
#
# Revision: 0
# Processed by: cddbd v1.5.2PL0 Copyright (c) Steve Scherf et al.
# Submitted via: ExactAudioCopyFreeDBPlugin 1.0
#
DISCID=810a220a
DTITLE=Keith Barrow - Keith Barrow
DYEAR=1977
DGENRE=Soul
TTITLE0=Mr. Magic Man
TTITLE1=Teach Me (It's Something About Love)
TTITLE2=I Put The Twinkle In Your Eye
TTITLE3=A World Of Lonely People
TTITLE4=You Don't Know How Hard It Is To Make It
TTITLE5=Didn't You Know You'd Have To Cry Sometime
TTITLE6=Precious
TTITLE7=Questions
TTITLE8=We've Got A Right To Be Wrong
TTITLE9=Precious (Full Length Version)
EXTD=
EXTT0=
EXTT1=
EXTT2=
EXTT3=
EXTT4=
EXTT5=
EXTT6=
EXTT7=
EXTT8=
EXTT9=
PLAYORDER=
